<svg width="31" height="27" viewBox="0 0 31 27" fill="none" xmlns="http://www.w3.org/2000/svg">
<path fill-rule="evenodd" clip-rule="evenodd" d="M25.0677 12.2632C23.369 11.5485 21.9892 10.678 20.9155 9.51349C18.9535 7.3856 18.1291 4.40914 17.9891 0.0488597L19.5109 4.74845e-06C19.6466 4.22807 20.4429 6.7548 22.0348 8.48141C23.6476 10.2306 26.1934 11.2923 30.1839 12.2857L30.0933 13.0244L30.1839 13.7632C26.1934 14.7565 23.6476 15.8182 22.0348 17.5675C20.4429 19.2941 19.6466 21.8208 19.5109 26.0489L17.9891 26C18.1291 21.6397 18.9535 18.6633 20.9155 16.5354C21.9892 15.3708 23.369 14.5004 25.0677 13.7857L-4.69557e-07 13.7857L-5.27856e-07 12.2632L25.0677 12.2632Z" fill="#E33F00"/>
</svg>
