<svg width="458" height="230" viewBox="0 0 458 230" fill="none" xmlns="http://www.w3.org/2000/svg">
<path d="M74.4164 29.614L16.6813 80.2269C12.0362 84.299 8.61035 89.5785 6.78385 95.4795C3.79993 105.12 5.33083 115.592 10.9494 123.975L70.2553 212.457C77.0321 222.568 88.403 228.635 100.575 228.635H371.246C383.842 228.635 395.548 222.141 402.215 211.454L446.99 139.677C454.81 127.141 454.301 111.127 445.701 99.1124L399.839 35.0462C394.573 27.6891 386.735 22.5066 377.827 20.6727C273.759 -0.750458 195.317 -1.29812 90.5052 21.4749C84.5279 22.7736 78.9924 25.6026 74.4164 29.614Z" fill="#E33F00" stroke="white" stroke-width="9"/>
</svg>
