<svg width="31" height="28" viewBox="0 0 31 28" fill="none" xmlns="http://www.w3.org/2000/svg">
<path fill-rule="evenodd" clip-rule="evenodd" d="M25.0678 13.2392C23.369 12.5245 21.9893 11.654 20.9155 10.4895C18.9536 8.3616 18.1292 5.38514 17.9892 1.02486L19.5109 0.976003C19.6467 5.20407 20.4429 7.73079 22.0349 9.45741C23.6477 11.2066 26.1935 12.2683 30.184 13.2617L30.0934 14.0004L30.184 14.7392C26.1935 15.7325 23.6477 16.7942 22.0349 18.5435C20.4429 20.2701 19.6467 22.7968 19.5109 27.0249L17.9892 26.976C18.1292 22.6157 18.9536 19.6393 20.9155 17.5114C21.9893 16.3468 23.369 15.4764 25.0678 14.7617L6.05656e-05 14.7617L6.05073e-05 13.2392L25.0678 13.2392Z" fill="white"/>
</svg>
