<svg width="1920" height="958" viewBox="0 0 1920 958" fill="none" xmlns="http://www.w3.org/2000/svg">
<path d="M2002.56 598.929C2011.84 673.535 1983.67 952.13 1965 937.75C1889.26 879.399 1768.88 790.648 1694.48 726.505C1691.95 724.32 1692.64 720.256 1695.74 718.986L1996.59 595.617C1999.24 594.529 2002.2 596.081 2002.56 598.929Z" fill="#AECFF0"/>
<path d="M1962.05 238.906L1962.05 8.40276C1962.05 2.42298 1955.35 -1.29004 1950.07 1.51672C1888.24 34.3797 1761.13 55.7351 1700.24 61.2642C1692.84 61.936 1690.02 72.3316 1696.21 76.4396L1950.41 245.155C1955.39 248.464 1962.05 244.89 1962.05 238.906Z" fill="#E33F00"/>
<path d="M878.288 571.588C822.471 606.005 701.328 642.969 658.5 645.44C567.006 657.314 433.887 637.968 416.012 635.251C414.766 635.062 413.592 635.673 412.98 636.773L376.28 702.697C375.104 704.809 376.782 707.374 379.189 707.142L622.5 683.69L855.274 690.32C857.339 690.379 858.944 688.36 858.842 686.296C857.973 668.745 873.112 624.318 890.701 581.075C892.079 577.687 881.402 569.668 878.288 571.588Z" fill="#E33F00"/>
<path d="M54.0782 420.534L-183.279 814.414C-183.995 815.602 -183.803 817.127 -182.814 818.1L-42.0826 956.644C-40.8285 957.879 -38.7633 957.746 -37.64 956.391C73.2538 822.654 154.744 763.49 353.445 708.054C354.263 707.826 354.966 707.257 355.346 706.498L390.268 636.552C391.217 634.652 390.102 632.39 387.99 632.163C352.889 628.382 111.399 596.173 59.6777 421.36C58.9247 418.815 55.4482 418.26 54.0782 420.534Z" fill="#73CCE3"/>
<path d="M-56.113 580.569L85.0497 286.144C86.9767 282.125 81.9653 276.965 77.697 278.249C47.3725 287.372 -11.9183 293.281 -43.7748 293.785C-46.1576 293.822 -48.1088 295.677 -48.2481 298.056L-64.6631 578.36C-64.9515 583.286 -58.2463 585.018 -56.113 580.569Z" fill="#FEE629"/>
</svg>
