<svg width="152" height="155" viewBox="0 0 152 155" fill="none" xmlns="http://www.w3.org/2000/svg">
<path d="M15.2871 66.2829L14.8205 67.5983L0 62.3366L0.547202 60.7904L12.7412 65.1175L3.81313 51.5651L4.30273 50.1862L19.1233 55.4479L18.5761 56.9941L6.33602 52.6497L15.2871 66.2829Z" fill="black"/>
<path d="M23.9329 48.2133C22.7464 49.9441 21.4158 51.1787 19.9355 51.9057L18.53 50.9364C20.1544 50.1806 21.4849 49.0498 22.516 47.5382C23.3627 46.3036 23.7832 45.1497 23.7832 44.0824C23.7774 43.015 23.3569 42.1958 22.516 41.6188C21.7614 41.0996 20.9147 41.013 19.9758 41.3477C19.0369 41.6823 18.2017 42.3919 17.4587 43.465L16.3643 45.0632L15.1259 44.2093L16.3182 42.4669C16.946 41.5496 17.2456 40.7073 17.2225 39.9341C17.1995 39.161 16.8424 38.5437 16.1684 38.0764C15.5003 37.6206 14.7803 37.5514 14.0027 37.8745C13.2251 38.1976 12.5166 38.8322 11.8657 39.7841C10.9902 41.0592 10.4142 42.5535 10.1319 44.267L8.83594 43.3785C9.11242 41.6996 9.71146 40.188 10.6273 38.8553C11.5259 37.5456 12.5627 36.6802 13.732 36.2706C14.9243 35.8552 16.0244 35.9879 17.0209 36.6744C17.787 37.1994 18.2536 37.8456 18.4148 38.613C18.5761 39.3572 18.5531 40.0553 18.3515 40.6957C19.0657 40.1303 19.8837 39.7668 20.8168 39.6053C21.7269 39.4149 22.6485 39.6341 23.5758 40.2745C24.7221 41.065 25.3499 42.1842 25.4421 43.6323C25.5285 45.0862 25.0274 46.6151 23.9329 48.2133Z" fill="black"/>
<path d="M31.2597 39.1091C30.6606 39.6514 30.1019 40.0207 29.5835 40.2053L28.5409 39.0572C29.0824 38.8495 29.572 38.5437 30.0155 38.1398C30.603 37.6033 30.8565 36.9283 30.7816 36.109C30.747 35.7167 30.6894 35.3417 30.6145 34.984C30.5742 34.782 30.4533 34.3378 30.2632 33.6628L17.9771 29.5492L19.3422 28.3088L29.716 31.8512L26.5422 21.7605L27.8555 20.5662L31.9048 33.6628C32.3137 35.0128 32.4635 36.1148 32.3483 36.9802C32.2331 37.8456 31.8645 38.5552 31.2597 39.1091Z" fill="black"/>
<path d="M50.8032 25.3547L49.3344 26.1336L46.0166 19.8737C44.9798 21.0507 43.7587 22.0142 42.359 22.7642C40.7462 23.6239 39.3522 23.9296 38.1772 23.6758C37.0022 23.4277 36.0229 22.5623 35.2338 21.0738L33.0508 16.9602L34.5196 16.1813L36.501 19.9199C37.1404 21.1257 37.8719 21.8238 38.7014 22.0084C39.5308 22.1988 40.6137 21.9334 41.9442 21.2238C43.1884 20.5603 44.2886 19.6314 45.2447 18.4256L41.9558 12.2235L43.4246 11.4446L50.8032 25.3547Z" fill="black"/>
<path d="M55.2618 23.6412L53.5684 24.022L56.9668 7.03104L58.4817 6.69064L68.7863 20.618L67.0756 20.9988L64.2244 17.1852L56.1776 18.9853L55.2618 23.6412ZM58.1706 8.9061L56.408 17.4391L63.3834 15.8813L58.1706 8.9061Z" fill="black"/>
<path d="M73.1985 20.6584L71.8103 20.5718L72.7607 4.85017L74.3966 4.94825L73.6132 17.8833L84.1483 5.53673L85.6055 5.62327L84.6551 21.3449L83.0193 21.2469L83.8027 8.26567L73.1985 20.6584ZM79.2407 4.14053C78.1175 4.0713 77.2362 3.70783 76.5911 3.04434C75.946 2.38086 75.6522 1.53276 75.6983 0.500031L77.1326 0.586572C77.098 1.21544 77.2766 1.73469 77.6682 2.15008C78.0599 2.56548 78.6129 2.79049 79.3156 2.83665C79.9895 2.87703 80.5425 2.71549 80.9745 2.35201C81.4065 1.98854 81.6542 1.49237 81.706 0.863504L83.1403 0.950045C83.0481 1.98277 82.6391 2.79049 81.9134 3.37897C81.1761 3.95014 80.2833 4.204 79.2407 4.14053Z" fill="black"/>
<path d="M109.78 13.4699L111.203 14.3296L107.666 20.1798L117.429 18.1028L119.313 19.2451L108.979 21.3971L112.193 33.334L110.195 32.1225L107.205 20.9471L103.064 27.8012L101.641 26.9415L109.78 13.4699Z" fill="black"/>
<path d="M114.336 35.2551L113.138 34.0089L129.393 28.0837L130.47 29.2029L123.944 45.2592L122.729 43.9957L124.497 39.5764L118.783 33.6223L114.336 35.2551ZM128.42 30.0857L120.229 33.0108L125.182 38.1686L128.42 30.0857Z" fill="black"/>
<path d="M127.21 51.0749L126.352 49.6499L138.517 42.2766L135.712 37.6379L137.002 36.8591L143.505 47.619L142.215 48.3979L139.375 43.7016L127.21 51.0749Z" fill="black"/>
<path d="M130.556 56.9423L130.009 55.298L147.226 56.9712L147.716 58.4424L134.923 70.1139L134.37 68.4466L137.872 65.2214L135.274 57.3866L130.556 56.9423ZM145.486 58.3558L136.835 57.4616L139.087 64.2522L145.486 58.3558Z" fill="black"/>
<path d="M135.136 71.2274L136.662 71.1582C136.639 71.3082 136.634 71.5217 136.645 71.7871C136.68 72.4736 136.945 73.0159 137.44 73.4083C137.941 73.7948 138.65 74.1006 139.577 74.3083C140.199 74.4583 140.879 74.5448 141.616 74.5737C142.457 74.6256 143.252 74.6545 144.006 74.666C144.559 74.6718 145.475 74.6545 146.748 74.6256L151.039 74.516L151.5 84.3586L135.793 85.0971L135.712 83.4355L149.916 82.7663L149.605 76.2007L146.011 76.2584C143.062 76.3045 140.838 76.1891 139.335 75.8949C137.976 75.641 136.962 75.1968 136.294 74.5621C135.626 73.9275 135.245 73.0217 135.142 71.8563C135.124 71.5159 135.124 71.3082 135.136 71.2274Z" fill="black"/>
<path d="M148.413 94.4436C149.565 96.2898 149.87 98.3091 149.328 100.507C148.793 102.694 147.583 104.332 145.711 105.429C143.839 106.525 141.783 106.802 139.542 106.248C137.29 105.694 135.585 104.494 134.433 102.648C133.292 100.819 132.993 98.8111 133.534 96.6072C134.082 94.3917 135.28 92.7416 137.134 91.657C138.989 90.5723 141.051 90.307 143.321 90.8666C145.579 91.4262 147.272 92.6205 148.413 94.4436ZM137.929 93.134C136.426 93.9821 135.458 95.2686 135.038 96.9879C134.617 98.7072 134.871 100.294 135.81 101.742C136.76 103.213 138.137 104.171 139.94 104.615C141.742 105.059 143.407 104.852 144.928 103.992C146.431 103.144 147.399 101.857 147.819 100.138C148.24 98.4187 147.986 96.8322 147.047 95.384C146.097 93.9128 144.72 92.9551 142.917 92.5109C141.115 92.0666 139.456 92.2743 137.929 93.134Z" fill="black"/>
<path d="M129.359 109.329L130.211 107.898L143.713 115.975L142.86 117.406L137.25 114.048L132.458 122.085L138.068 125.443L137.215 126.873L123.714 118.796L124.566 117.365L131.162 121.312L135.954 113.275L129.359 109.329Z" fill="black"/>
<path d="M119.837 123.291L120.857 122.339L131.587 133.849L130.389 134.968L121.559 125.495L123.247 141.649L122.181 142.647L111.45 131.137L112.649 130.018L121.507 139.526L119.837 123.291Z" fill="black"/>
<path d="M96.7627 138.753C98.6117 137.928 100.449 137.887 102.287 138.626C104.136 139.393 105.564 140.737 106.561 142.653L109.492 141.343L106.532 134.685L108.052 134.01L114.452 148.399L112.931 149.08L110.109 142.728L107.154 144.049C107.816 146.022 107.799 147.914 107.102 149.738C106.411 151.538 105.172 152.842 103.381 153.644C101.451 154.503 99.5333 154.509 97.6267 153.649C95.7144 152.813 94.2859 151.33 93.3413 149.207C92.3966 147.084 92.2526 145.03 92.9093 143.045C93.5544 141.037 94.8331 139.612 96.7627 138.753ZM101.849 140.178C100.357 139.514 98.8709 139.508 97.3963 140.172C95.916 140.83 94.9368 141.937 94.4414 143.484C93.9288 145.024 94.0786 146.703 94.885 148.509C95.6914 150.315 96.8318 151.549 98.3179 152.195C99.7983 152.865 101.273 152.87 102.753 152.213C104.228 151.555 105.224 150.447 105.725 148.89C106.238 147.349 106.088 145.67 105.282 143.864C104.481 142.059 103.335 140.83 101.849 140.178Z" fill="black"/>
<path d="M86.0204 148.967C75.712 151.196 65.0215 150.946 54.8288 148.236C44.636 145.527 35.2323 140.436 27.3913 133.382C19.5504 126.329 13.4964 117.514 9.72751 107.664C5.95861 97.8136 4.58254 87.2091 5.71253 76.7231L7.01371 76.8633C5.90593 87.1433 7.25496 97.5394 10.9498 107.196C14.6447 116.853 20.5797 125.494 28.2666 132.409C35.9535 139.324 45.1725 144.315 55.165 146.971C65.1575 149.628 75.6379 149.873 85.7438 147.688L86.0204 148.967Z" fill="black"/>
</svg>
