<svg width="1656" height="130" viewBox="0 0 1656 130" fill="none" xmlns="http://www.w3.org/2000/svg">
<path d="M537.38 81.0065L1111.5 104L1479.49 80.0659C1480.16 80.0222 1480.83 80.0693 1481.49 80.206L1682.42 121.827C1686.75 122.724 1690.92 119.698 1691.4 115.301L1703.09 8.81826C1703.57 4.37885 1700.1 0.5 1695.63 0.5H647.074C645.717 0.5 644.385 0.868282 643.221 1.5656L533.827 67.0781C527.433 70.9074 529.933 80.7082 537.38 81.0065Z" fill="#E33F00"/>
<path d="M492.593 78.6144L600 0.5C604.219 -2.97453 601.7 -9.82218 596.235 -9.73424L13.3058 -0.353771C-17.5568 0.142867 -43.7917 22.325 -49.4121 52.6755C-57.5303 96.5136 -20.0114 135.278 24.0684 128.596L216 99.5L456.054 91.1984C469.217 90.7432 481.942 86.3607 492.593 78.6144Z" fill="#73CCE3"/>
</svg>
