<svg width="1656" height="116" viewBox="0 0 1656 116" fill="none" xmlns="http://www.w3.org/2000/svg">
<path d="M521.25 107.25L-6.6739 115.395C-10.5432 115.454 -13.8226 112.56 -14.2448 108.714L-26.087 0.818257C-26.5743 -3.62115 -23.0979 -7.5 -18.6318 -7.5H1038.96C1040.3 -7.5 1041.61 -7.14378 1042.76 -6.46812L1157.41 60.8249C1163.82 64.5929 1161.43 74.4017 1153.99 74.7831L521.25 107.25Z" fill="#E33F00"/>
<path d="M1205.61 66.3204L1083.19 -3.53776C1082.08 -4.17138 1081.12 -5.04321 1080.39 -6.09055C1076.4 -11.7845 1080.42 -19.6163 1087.37 -19.7021L1640.54 -26.5313C1661.43 -26.7892 1678.5 -9.92588 1678.5 10.9658V60.0949C1678.5 82.9732 1658.19 100.519 1635.55 97.1975L1461.46 71.6474C1459.66 71.3828 1457.84 71.25 1456.01 71.25H1224.2C1217.68 71.25 1211.27 69.551 1205.61 66.3204Z" fill="#FEE629"/>
</svg>
