<svg width="181" height="34" viewBox="0 0 181 34" fill="none" xmlns="http://www.w3.org/2000/svg">
  <path d="M52 31.5H104H170.748C173.936 31.5 176.82 29.6065 178.088 26.6809L180.337 21.4912C181.642 18.479 180.975 14.9749 178.654 12.6535L168.487 2.48741C166.902 0.902368 164.725 0.055034 162.486 0.151703L96.5 3L48.5128 5.93799C47.8403 5.97917 47.1653 5.93521 46.5038 5.80718L18.9127 0.46698C17.3405 0.162677 15.7131 0.337233 14.2412 0.968059L6.59152 4.24649C4.0475 5.33679 2.24778 7.66463 1.83315 10.4012L0.669503 18.0813C0.253429 20.8274 1.29144 23.5928 3.41169 25.3868L10.5838 31.4555C12.136 32.769 14.1303 33.442 16.161 33.3379L52 31.5Z" fill="#E33F00" />
</svg>