<svg width="327" height="835" viewBox="0 0 327 835" fill="none" xmlns="http://www.w3.org/2000/svg">
<path d="M262.467 494.517L240.242 391L-75.5 688C-74.744 801.809 -60.3203 856.421 -39.9999 827C-19.6795 797.579 271.69 686.569 311 676.581L246.592 621.19V522.213L262.467 494.517Z" fill="#FEE629"/>
<path d="M270.218 344.458L-41 465.5L36 264.5L118 62L297.044 104.777L311.14 182.255C353.335 267.434 301.44 325.882 270.218 344.458Z" fill="#AECFF0"/>
<path d="M121.518 439.648L-34.1796 501.39C-37.4261 502.678 -39.6347 505.727 -39.8455 509.213L-45.5979 604.319C-46.0942 612.523 -36.2383 617.045 -30.3431 611.318L131.107 454.469C138.168 447.61 130.67 436.019 121.518 439.648Z" fill="#73CCE3"/>
<path d="M252.154 63.8681C235.802 47.0593 211.235 21.3103 195.685 2.6958C192.025 -1.68508 184.758 -0.410179 183.013 5.02492L168.344 50.7071C167.086 54.6273 169.466 58.782 173.484 59.679L245.526 75.76C252.362 77.286 257.038 68.8885 252.154 63.8681Z" fill="#E33F00"/>
</svg>
