<svg width="1280" height="1257" viewBox="0 0 1280 1257" fill="none" xmlns="http://www.w3.org/2000/svg">
<path d="M1308.04 160.336L1308.04 5.66282C1308.04 2.0524 1304.35 -0.388997 1301 0.962484C1253 20.339 1172.97 37.1281 1133.48 41.6585C1128.56 42.223 1126.68 49.2863 1130.81 52.025L1300.27 164.502C1303.59 166.708 1308.04 164.325 1308.04 160.336Z" fill="#E33F00"/>
<path d="M99.9756 253.197L88.1592 133.72C87.5013 127.069 81.9065 122 75.2223 122H-86.1754C-93.6692 122 -99.6111 128.319 -99.1509 135.798L-80.056 446.089C-79.3274 457.93 -64.4212 462.688 -56.9673 453.459L97.1519 262.645C99.2974 259.989 100.312 256.595 99.9756 253.197Z" fill="#73CCE3"/>
<path d="M-42.8591 465.955L97.6019 286.723C100.122 283.507 105.225 284.507 106.346 288.435L132.877 381.448C133.53 383.738 132.478 386.17 130.363 387.263L-36.6297 473.482C-41.4007 475.946 -46.1711 470.182 -42.8591 465.955Z" fill="#E33F00"/>
<path d="M1045.56 461.424L1319.81 394.509C1322.96 393.741 1326 396.125 1326 399.367V601.221C1326 604.588 1322.74 606.992 1319.52 605.998L1107.92 540.594C1106.69 540.213 1105.66 539.372 1105.01 538.253C1089.23 510.765 1061.38 484.801 1043.63 470.588C1040.3 467.919 1041.41 462.437 1045.56 461.424Z" fill="#AECFF0"/>
<path d="M1120 632.534L1111.26 554L1326 632.534L1219.6 761L1120 632.534Z" fill="#FEE629"/>
<path d="M1097.99 703.604L1116.46 658.49C1117.35 656.313 1120.28 655.962 1121.66 657.866L1191.67 754.504C1193.57 757.13 1190.53 760.488 1187.73 758.856L1099.26 707.333C1097.96 706.58 1097.42 704.989 1097.99 703.604Z" fill="#73CCE3"/>
<path d="M502.399 1117.02L489.126 1207.72C488.766 1210.18 486.66 1212 484.178 1212H399.5L240.736 1230.91C240.248 1230.97 239.754 1230.96 239.271 1230.87L216.134 1226.77C212.688 1226.15 210.92 1222.28 212.714 1219.28L268.81 1125.33C269.835 1123.61 271.785 1122.67 273.768 1122.94L392.507 1138.87C393.163 1138.95 393.829 1138.91 394.467 1138.74L496.157 1111.47C499.629 1110.54 502.92 1113.47 502.399 1117.02Z" fill="#73CCE3"/>
<path d="M193.946 1220.51L246.281 1130.4C248.061 1127.34 246.167 1123.45 242.668 1122.89C161.494 1110.01 123.54 1083.25 76.9435 1004.66C75.5796 1002.35 72.6347 1001.48 70.2667 1002.72L-68.5417 1075.59C-71.9023 1077.35 -72.1714 1082.09 -69.0897 1084.3C-44.2706 1102.15 -6.93393 1134.55 29 1163.55C67.1161 1194.32 103.654 1221.28 122 1223H189.622C191.404 1223 193.051 1222.05 193.946 1220.51Z" fill="#FEE629"/>
<path d="M1319.5 680.5L1232 774L1299 902.5L1319.5 680.5Z" fill="#E33F00"/>
<path d="M53.9936 896.526L73.5829 818.168C74.6454 813.918 72.0921 809.604 67.8553 808.491L-70.4665 772.137C-75.5386 770.804 -80.5 774.63 -80.5 779.874V1056.42C-80.5 1062.51 -73.9527 1066.37 -68.6206 1063.41L70.0825 986.504C73.272 984.735 74.8616 981.034 73.9478 977.503L54.01 900.47C53.6753 899.177 53.6697 897.821 53.9936 896.526Z" fill="#E33F00"/>
<path d="M656.474 1139.29L543.484 1202.32C541.006 1203.71 541.655 1207.44 544.454 1207.9L683.256 1230.96C683.418 1230.99 683.583 1231 683.747 1231H815.5L1015.35 1207.31C1016.86 1207.13 1018 1205.85 1018 1204.33V1193.47C1018 1192.27 1017.29 1191.19 1016.2 1190.71L948.388 1161.17C948.131 1161.06 947.859 1160.98 947.58 1160.94L723.863 1131.55C723.622 1131.52 723.378 1131.51 723.136 1131.54L657.599 1138.93C657.204 1138.98 656.821 1139.1 656.474 1139.29Z" fill="#E33F00"/>
<path d="M634.372 1125.41L605.58 1087.39C603.163 1084.2 598.928 1082.98 595.188 1084.42L525.251 1111.18C522.303 1112.31 520.161 1114.9 519.607 1118.01L505.914 1194.84C504.568 1202.39 512.683 1208.06 519.31 1204.19L631.732 1138.61C636.394 1135.89 637.631 1129.71 634.372 1125.41Z" fill="#FEE629"/>
<path d="M1299.39 1249.47L1333.87 1144.3C1336.29 1136.91 1329.72 1129.7 1322.13 1131.44L1041.4 1195.75C1030.72 1198.2 1031.19 1213.57 1042 1215.37L1288.26 1256.22C1293.13 1257.03 1297.86 1254.16 1299.39 1249.47Z" fill="#73CCE3"/>
</svg>
