<svg width="1104" height="112" viewBox="0 0 1104 112" fill="none" xmlns="http://www.w3.org/2000/svg">
<path d="M339.5 104.287L-12.2758 111.898C-14.9269 111.956 -17.1618 109.933 -17.3687 107.29L-25.5782 2.3906C-25.8056 -0.515703 -23.5086 -2.99951 -20.5934 -2.99951L684.207 -2.99951C685.366 -2.99951 686.489 -2.59665 687.384 -1.85984L768.343 64.7826C771.828 67.6518 770.027 73.3059 765.524 73.63L339.5 104.287Z" fill="#FEE629"/>
<path d="M804.105 73.7124L715.321 3.22504C714.247 2.37291 713.372 1.29739 712.756 0.0731411C709.628 -6.14433 714.072 -13.4945 721.031 -13.614L1125.57 -20.5627C1139.54 -20.8027 1151 -9.54151 1151 4.43359L1151 81.38C1151 97.1972 1136.5 109.039 1121 105.875L992.506 79.6381C990.86 79.302 989.185 79.1327 987.505 79.1327L819.65 79.1327C814.005 79.1327 808.526 77.2223 804.105 73.7124Z" fill="#AECFF0"/>
</svg>
