<svg width="377" height="88" viewBox="0 0 377 88" fill="none" xmlns="http://www.w3.org/2000/svg">
<path d="M0.911735 48.1473L3.5187 26.9191C3.81744 24.4865 5.36667 22.3874 7.60311 21.3848L31.7539 10.5586C32.5769 10.1897 33.4634 9.98327 34.3647 9.95073L308.898 0.0397728C309.628 0.01342 310.358 0.101484 311.061 0.300768L371.91 17.5565C374.921 18.4106 377 21.1605 377 24.291V65.0765C377 68.2691 374.838 71.0621 371.739 71.8307C329.04 82.4214 290.46 87.0012 291.023 87.4612C291.594 87.4866 291.764 87.5 291.5 87.5C291.211 87.5 291.054 87.4872 291.023 87.4612C279.625 86.9534 108.565 81.6369 32.8597 81.5026C30.9828 81.4993 29.2588 80.7463 27.9428 79.408L2.86837 53.9085C1.37201 52.3868 0.651597 50.2656 0.911735 48.1473Z" fill="#E33F00"/>
</svg>
