<svg width="1280" height="433" viewBox="0 0 1280 433" fill="none" xmlns="http://www.w3.org/2000/svg">
<path d="M1045.45 183.364L764.745 172.568C761.89 172.458 759.151 171.411 756.951 169.588L700.61 122.905C695.956 119.05 694.574 112.496 697.273 107.089L736.722 28.0663C738.479 24.5472 741.735 22.0126 745.577 21.1727L828.157 3.12244C830.03 2.7132 831.969 2.72298 833.837 3.15109L1026.29 47.2558C1031.26 48.3943 1035.1 52.3313 1036.12 57.3251L1058.68 167.772C1060.37 176.032 1053.87 183.688 1045.45 183.364Z" fill="#AECFF0"/>
<mask id="mask0_137_2" style="mask-type:alpha" maskUnits="userSpaceOnUse" x="167" y="222" width="418" height="197">
<path d="M237.251 418.002H514.606C518.639 418.002 522.442 416.131 524.904 412.937L582.007 338.833C584.795 335.216 585.48 330.4 583.811 326.149L552.449 246.239C550.913 242.326 547.579 239.397 543.5 238.377L480.597 222.651C478.884 222.223 477.102 222.148 475.359 222.431L178.021 270.737C169.493 272.122 164.664 281.287 168.343 289.104L225.488 410.537C227.632 415.094 232.215 418.002 237.251 418.002Z" fill="#FFDF00"/>
</mask>
<g mask="url(#mask0_137_2)">
<path d="M151.501 209.002H639.501V433.002H151.501V209.002Z" fill="#FFDF00"/>
<path d="M354.003 350.501L368.284 367.501L385.668 350.501L382.697 342.903L369.921 337.148L354.003 350.501Z" fill="#ED1B2E"/>
<path d="M378.454 278.015L382.724 302.202L374.006 307.585L354.009 292.76L368.158 278.002L378.454 278.015Z" fill="#ED1B2E"/>
<path d="M418.01 278.028L434.426 285.527L426.238 299.987L413.256 307.572L401.203 299.821L418.01 278.028Z" fill="#ED1B2E"/>
<path d="M434.379 353.837L430.03 367.515H412.427L403.629 352.876L418.626 337.116L434.379 353.837Z" fill="#ED1B2E"/>
<path d="M321.277 320.15C321.091 318.22 319.891 317.12 317.982 317.12C315.853 317.12 314.567 318.943 314.567 322.51C314.567 325.096 315.131 327.549 318.214 327.549C320.17 327.549 321.091 326.183 321.33 324.413H327.158C326.621 329.186 323.2 332.07 318.32 332.07C312.207 332.07 308.501 328.318 308.501 322.304C308.501 316.324 312.558 312.591 317.73 312.591C323.379 312.591 326.541 315.389 327.025 320.15H321.277Z" fill="black"/>
<path d="M336.042 325.063L339.755 325.069L337.865 318.658L336.042 325.063L334.835 329.147L334.146 331.573H328.205L334.835 313.082H341.001L347.625 331.573H341.591L340.868 329.147H334.835L336.042 325.063Z" fill="black"/>
<path d="M370.737 325.175H374.45L372.561 318.77L370.737 325.175L369.531 329.259L368.841 331.685H362.907L369.531 313.188H375.697L382.32 331.685H376.287L375.564 329.259H369.531L370.737 325.175Z" fill="black"/>
<path d="M468.418 324.949L472.137 324.956L470.248 318.551L468.418 324.949L467.218 329.033L466.522 331.46H460.588L467.218 312.969H473.377L480.001 331.46H473.967L473.251 329.033H467.218L468.418 324.949Z" fill="black"/>
<path d="M346.995 313.082H363.941V317.935H358.505V331.573H352.438V317.935H346.995V313.082Z" fill="black"/>
<path d="M384.402 331.573V313.082H390.455V327.264H398.782V331.573H384.402Z" fill="black"/>
<path d="M401.375 313.082H407.441V324.154C407.441 325.978 407.799 327.549 410.286 327.549C412.48 327.549 413.123 326.163 413.123 324.154V313.082H419.176V323.544C419.176 329.478 416.418 332.071 410.279 332.071C404.557 332.071 401.368 329.883 401.368 323.511V313.082H401.375Z" fill="black"/>
<path d="M435.022 323.173L434.797 318.97V313.082H440.605V331.573H434.923L428.319 321.509L428.551 325.726V331.573H422.756V313.082H428.419L435.022 323.173Z" fill="black"/>
<path d="M455.403 331.573H449.336V324.85L442.454 313.082H449.224L452.419 319.347L455.602 313.082H462.285L455.403 324.744V331.573Z" fill="black"/>
</g>
<path d="M-36.7826 94.6786C-27.7384 116.935 -38.7829 132.564 -36.3621 159.384C-11.4535 159.222 87.147 175.76 83.9474 168.05C77.6477 152.87 5.03884 56.7435 -11.0601 43.547L-36.7826 94.6786Z" fill="#E33F00"/>
<path d="M91.9671 188.973C104.527 190.713 208.073 431.378 221.53 454.246L-45.5084 454.246C-51.2247 423.075 -27.0875 169.03 -17.9159 176.027C-6.45136 184.775 76.2674 186.798 91.9671 188.973Z" fill="#AECFF0"/>
<path d="M107.001 173.787C116.43 178.006 207.295 234.996 228.278 242.098L152.541 257.092L107.001 173.787Z" fill="#73CCE3"/>
<path d="M1063.22 84.4421L1079.01 193.988C1080.12 201.688 1089.21 205.228 1095.24 200.305L1318.26 18.0695C1326.74 11.1348 1319.5 -2.43213 1309.02 0.75928L1070.21 73.4492C1065.49 74.8868 1062.52 79.5558 1063.22 84.4421Z" fill="#73CCE3"/>
<path d="M1306.44 364.761L1407.73 85.7164C1409.8 80.0144 1406.36 73.7977 1400.43 72.5264L1318.67 55.0026C1315.72 54.37 1312.64 55.1045 1310.29 57.0012L1104.26 223.415C1099.08 227.599 1099.36 235.583 1104.82 239.395L1291.32 369.549C1296.71 373.311 1304.2 370.939 1306.44 364.761Z" fill="#FEE629"/>
</svg>
