<svg width="1280" height="722" viewBox="0 0 1280 722" fill="none" xmlns="http://www.w3.org/2000/svg">
<path d="M-15.9626 125.281C8.45992 109.871 58.9786 47.2787 107.572 6.21401C109.774 4.35359 108.393 0.70194 105.512 0.797171L-4.25546 4.42584C-5.58611 4.46983 -6.72859 5.38556 -7.06121 6.67473L-19.9095 56.4727C-19.9727 56.7176 -20.0046 56.9694 -20.0046 57.2222L-20.0045 122.851C-20.0045 125.03 -17.8057 126.443 -15.9626 125.281Z" fill="#FEE629"/>
<path d="M806.992 562.544C764.621 562.544 672.915 576.857 592.206 594.733C591.418 594.907 590.599 594.839 589.85 594.538L483.953 551.99C481.477 550.995 480.651 547.902 482.3 545.805L537.788 475.27C537.929 475.091 538.055 474.899 538.163 474.698L562.523 429.588C563.772 427.274 566.913 426.808 568.843 428.596C678.186 529.848 781.285 536.017 1025.38 486.453C1028.45 485.83 1031.11 488.792 1030.04 491.733L999.908 574.149C999.292 575.835 997.66 576.907 995.871 576.761C956.323 573.539 847.652 562.544 806.992 562.544Z" fill="#73CCE3"/>
<path d="M1041.55 492.082L1021.04 564.082C1019.77 568.553 1023.09 572.998 1027.74 572.926C1105.2 571.724 1240.17 555.859 1289.04 524.495C1290.95 523.269 1292 521.151 1292 518.88V494C1292 490.134 1288.88 487 1285.01 487H1048.25C1045.12 487 1042.41 489.075 1041.55 492.082Z" fill="#FEE629"/>
<path d="M34.5 309.5L11.5 121L-40 189.5L-33.5 370.5L34.5 309.5Z" fill="#73CCE3"/>
<path d="M109 613.5L64 708L-14 722L-73.5 708L-48.5 415.5L37.5 329.5L84 441L149 576L109 613.5Z" fill="#AECFF0"/>
</svg>
