<svg width="24" height="27" viewBox="0 0 24 27" fill="none" xmlns="http://www.w3.org/2000/svg">
<path fill-rule="evenodd" clip-rule="evenodd" d="M10.9859 0.07901V21.5839C10.3662 20.238 9.61564 19.1284 8.63384 18.25C6.70051 16.5202 4.00499 15.8008 0.0816885 15.6785L0.0342789 17.2004C3.83335 17.3187 6.0861 18.0135 7.61862 19.3846C9.16946 20.7722 10.1177 22.9673 11.0098 26.4449L11.8861 26.3343L12.7625 26.4449C13.6545 22.9673 14.6028 20.7722 16.1536 19.3846C17.6861 18.0135 19.9389 17.3187 23.7379 17.2004L23.6905 15.6785C19.7672 15.8008 17.0717 16.5202 15.1384 18.25C14.1566 19.1284 13.406 20.238 12.7863 21.5839V0.07901H12.5084H11.2638H10.9859Z" fill="black"/>
</svg>
