<svg width="1280" height="638" viewBox="0 0 1280 638" fill="none" xmlns="http://www.w3.org/2000/svg">
<path d="M-112 389L-38 619H104L116.5 541.5C116.5 541.5 -62.0889 425.855 -73 375L-112 389Z" fill="#73CCE3"/>
<path d="M1214.32 93.5151C1243.57 107.047 1284.44 166.698 1311.38 190.771C1317.67 168.953 1327.02 120.854 1314.09 102.993C1301.16 85.1324 1242.19 84.2894 1214.32 86.1005L1214.32 93.5151Z" fill="#FFDF00"/>
<path d="M1196.85 70.3356C1184.7 68.5862 1155.89 24.0496 1143 2L1298.19 2.00003C1303.53 31.9766 1312 90.235 1303.16 83.4561C1292.12 74.9825 1212.04 72.5224 1196.85 70.3356Z" fill="#E33F00"/>
<path d="M1163 46C1154.51 42.097 1098.91 8.55139 1080 1.95152L1131.22 4.39872e-06L1141.36 17.0061L1163 46Z" fill="#73CCE3"/>
<path d="M662 637.629L768.761 555C884.044 568.091 955.783 594.575 982 610.587L662 637.629Z" fill="#FFDF00"/>
<mask id="mask0_137_2" style="mask-type:alpha" maskUnits="userSpaceOnUse" x="-31" y="13" width="300" height="152">
<path d="M249.348 150.913L-12.7391 164.71L-31 24.7101L269 13L249.348 150.913Z" fill="#FFDF00"/>
</mask>
<g mask="url(#mask0_137_2)">
<path d="M327 3H-73.0001V187H327V3Z" fill="#FFDF00"/>
<path d="M112.175 110.64L123.529 124.155L137.35 110.64L134.989 104.599L124.831 100.024L112.175 110.64Z" fill="#ED1B2E"/>
<path d="M131.615 53.0105L135.01 72.2396L128.078 76.5197L112.181 64.7335L123.429 53L131.615 53.0105Z" fill="#ED1B2E"/>
<path d="M163.063 53.0212L176.114 58.9828L169.605 70.4791L159.284 76.5093L149.701 70.3473L163.063 53.0212Z" fill="#ED1B2E"/>
<path d="M176.077 113.291L172.619 124.165H158.624L151.63 112.527L163.553 99.9973L176.077 113.291Z" fill="#ED1B2E"/>
<path d="M86.1574 86.5085C86.0098 84.9746 85.0557 84.0996 83.5376 84.0996C81.8456 84.0996 80.823 85.5492 80.823 88.385C80.823 90.4408 81.2711 92.3911 83.7221 92.3911C85.2771 92.3911 86.0098 91.3052 86.1995 89.8978H90.8329C90.4059 93.693 87.686 95.986 83.8065 95.986C78.9465 95.986 75.9999 93.0025 75.9999 88.2216C75.9999 83.4671 79.2259 80.4995 83.3373 80.4995C87.8283 80.4995 90.3426 82.7239 90.7274 86.5085H86.1574Z" fill="black"/>
<path d="M97.896 90.4144L100.848 90.4197L99.3455 85.3225L97.896 90.4144L96.9366 93.6614L96.3884 95.5907H91.6655L96.9366 80.8895H101.839L107.105 95.5907H102.308L101.733 93.6614H96.9366L97.896 90.4144Z" fill="black"/>
<path d="M125.48 90.5041H128.432L126.93 85.4122L125.48 90.5041L124.521 93.7511L123.972 95.6803H119.255L124.521 80.9739H129.423L134.689 95.6803H129.892L129.317 93.7511H124.521L125.48 90.5041Z" fill="black"/>
<path d="M203.139 90.3248L206.096 90.33L204.594 85.2381L203.139 90.3248L202.185 93.5718L201.632 95.501H196.914L202.185 80.7999H207.082L212.348 95.501H207.551L206.982 93.5718H202.185L203.139 90.3248Z" fill="black"/>
<path d="M106.604 80.8895H120.077V84.748H115.755V95.5907H110.932V84.748H106.604V80.8895Z" fill="black"/>
<path d="M136.344 95.5907V80.8895H141.156V92.1644H147.777V95.5907H136.344Z" fill="black"/>
<path d="M149.838 80.8895H154.661V89.6923C154.661 91.1418 154.945 92.3911 156.922 92.3911C158.667 92.3911 159.178 91.2894 159.178 89.6923V80.8895H163.991V89.2073C163.991 93.925 161.798 95.986 156.917 95.986C152.368 95.986 149.832 94.2465 149.832 89.181V80.8895H149.838Z" fill="black"/>
<path d="M176.588 88.9122L176.409 85.5703V80.8895H181.027V95.5907H176.509L171.259 87.5891L171.444 90.9415V95.5907H166.837V80.8895H171.338L176.588 88.9122Z" fill="black"/>
<path d="M192.792 95.5907H187.969V90.2458L182.497 80.8895H187.879L190.42 85.8707L192.95 80.8895H198.263L192.792 90.1614V95.5907Z" fill="black"/>
</g>
<path d="M130.5 542L118 618C318.8 586 428 598.667 457.5 609L646.5 633L751.5 548.5L651 511L556 490C482.333 507.333 332.5 543.3 322.5 548.5C312.5 553.7 190.333 546.333 130.5 542Z" fill="#E33F00"/>
<path d="M260 148.638L280.095 18H632L552.111 91.6057L460.949 154L260 148.638Z" fill="#AECFF0"/>
<path d="M550.845 98.8576L473.022 152.901C471.462 153.985 471.289 156.228 472.665 157.538L508.982 192.126C510.466 193.539 512.899 193.081 513.768 191.225L555.273 102.594C556.573 99.8176 553.363 97.109 550.845 98.8576Z" fill="#E33F00"/>
</svg>
