<svg width="1920" height="1012" viewBox="0 0 1920 1012" fill="none" xmlns="http://www.w3.org/2000/svg" xmlns:xlink="http://www.w3.org/1999/xlink">
<mask id="mask0_137_2" style="mask-type:alpha" maskUnits="userSpaceOnUse" x="777" y="-81" width="1174" height="1064">
<path d="M1504.5 966.75L1918.5 932.25L1950.75 982.5V347.25L1770 159.75L1635 79.5L1339.5 -81L1007.25 57.75L848.25 195.75L777 355.5C800.75 396.25 853.35 488.1 873.75 529.5C894.15 570.9 865.25 707.75 848.25 771C886.05 773.4 1052.5 833 1131 862.5L1162.5 870.75C1300.5 880.95 1445.5 933.75 1504.5 966.75Z" fill="#C4C4C4"/>
</mask>
<g mask="url(#mask0_137_2)">
<rect x="777" y="34.5" width="1263" height="949.5" fill="url(#pattern0_137_2)"/>
</g>
<path d="M-168 639L-57 984H156L174.75 867.75C174.75 867.75 -93.1334 694.282 -109.5 618L-168 639Z" fill="#73CCE3"/>
<path d="M1821.48 195.773C1865.36 216.07 1926.66 305.547 1967.07 341.656C1976.51 308.93 1990.53 236.781 1971.14 209.99C1951.74 183.199 1863.28 181.934 1821.48 184.651L1821.48 195.773Z" fill="#FFDF00"/>
<path d="M1795.27 161.003C1777.05 158.379 1733.83 91.5744 1714.5 58.5L1947.29 58.5C1955.3 103.465 1968 190.852 1954.74 180.684C1938.17 167.974 1818.05 164.284 1795.27 161.003Z" fill="#E33F00"/>
<path d="M1744.5 124.5C1731.76 118.645 1648.36 68.3271 1620 58.4273L1696.84 55.5L1712.04 81.0091L1744.5 124.5Z" fill="#73CCE3"/>
<path d="M993 1011.94L1153.14 888C1326.07 907.636 1433.68 947.363 1473 971.38L993 1011.94Z" fill="#FFDF00"/>
<mask id="mask1_137_2" style="mask-type:alpha" maskUnits="userSpaceOnUse" x="-47" y="75" width="451" height="228">
<path d="M374.022 281.87L-19.1087 302.565L-46.5 92.5652L403.5 75L374.022 281.87Z" fill="#FFDF00"/>
</mask>
<g mask="url(#mask1_137_2)">
<path d="M490.5 60H-109.5V336H490.5V60Z" fill="#FFDF00"/>
<path d="M168.263 221.46L185.294 241.732L206.025 221.46L202.483 212.399L187.247 205.536L168.263 221.46Z" fill="#ED1B2E"/>
<path d="M197.423 135.016L202.515 163.859L192.118 170.28L168.271 152.6L185.144 135L197.423 135.016Z" fill="#ED1B2E"/>
<path d="M244.595 135.032L264.172 143.974L254.407 161.219L238.926 170.264L224.551 161.021L244.595 135.032Z" fill="#ED1B2E"/>
<path d="M264.115 225.437L258.929 241.748H237.936L227.444 224.29L245.329 205.496L264.115 225.437Z" fill="#ED1B2E"/>
<path d="M129.236 185.263C129.015 182.962 127.584 181.649 125.307 181.649C122.768 181.649 121.235 183.824 121.235 188.078C121.235 191.161 121.907 194.087 125.583 194.087C127.916 194.087 129.015 192.458 129.299 190.347H136.249C135.609 196.04 131.529 199.479 125.71 199.479C118.42 199.479 114 195.004 114 187.832C114 180.701 118.839 176.249 125.006 176.249C131.743 176.249 135.514 179.586 136.091 185.263H129.236Z" fill="black"/>
<path d="M146.844 191.122L151.272 191.13L149.018 183.484L146.844 191.122L145.405 195.992L144.583 198.886H137.498L145.405 176.834H152.758L160.657 198.886H153.462L152.6 195.992H145.405L146.844 191.122Z" fill="black"/>
<path d="M188.22 191.256H192.648L190.394 183.618L188.22 191.256L186.781 196.127L185.959 199.02H178.882L186.781 176.961H194.134L202.033 199.02H194.838L193.976 196.127H186.781L188.22 191.256Z" fill="black"/>
<path d="M304.709 190.987L309.145 190.995L306.891 183.357L304.709 190.987L303.278 195.858L302.448 198.752H295.371L303.278 176.7H310.623L318.522 198.752H311.327L310.473 195.858H303.278L304.709 190.987Z" fill="black"/>
<path d="M159.906 176.834H180.116V182.622H173.632V198.886H166.398V182.622H159.906V176.834Z" fill="black"/>
<path d="M204.516 198.886V176.834H211.734V193.747H221.665V198.886H204.516Z" fill="black"/>
<path d="M224.757 176.834H231.991V190.038C231.991 192.213 232.418 194.087 235.383 194.087C238 194.087 238.767 192.434 238.767 190.038V176.834H245.986V189.311C245.986 196.387 242.697 199.479 235.375 199.479C228.552 199.479 224.749 196.87 224.749 189.271V176.834H224.757Z" fill="black"/>
<path d="M264.883 188.868L264.614 183.855V176.834H271.54V198.886H264.764L256.889 186.884L257.166 191.912V198.886H250.255V176.834H257.008L264.883 188.868Z" fill="black"/>
<path d="M289.188 198.886H281.953V190.869L273.746 176.834H281.819L285.63 184.306L289.425 176.834H297.395L289.188 190.742V198.886Z" fill="black"/>
</g>
<path d="M195.75 868.5L177 982.5C478.2 934.5 642 953.5 686.25 969L969.75 1005L1127.25 878.25L976.5 822L834 790.5C723.5 816.5 498.75 870.45 483.75 878.25C468.75 886.05 285.5 875 195.75 868.5Z" fill="#E33F00"/>
<path d="M390 278.457L420.142 82.5H948L828.166 192.909L691.423 286.5L390 278.457Z" fill="#AECFF0"/>
<path d="M826.267 203.786L709.534 284.852C707.193 286.477 706.933 289.841 708.997 291.807L763.473 343.688C765.699 345.808 769.348 345.122 770.651 342.338L832.91 209.391C834.86 205.226 830.045 201.163 826.267 203.786Z" fill="#E33F00"/>
<defs>
<pattern id="pattern0_137_2" patternContentUnits="objectBoundingBox" width="1" height="1">
<use xlink:href="#image0_137_2" transform="matrix(0.000269359 0 0 0.000358295 -0.0516476 0.0335662)"/>
</pattern>

</defs>
</svg>
