<svg width="1280" height="460" viewBox="0 0 1280 460" fill="none" xmlns="http://www.w3.org/2000/svg">
<mask id="mask0_198_2" style="mask-type:alpha" maskUnits="userSpaceOnUse" x="167" y="235" width="418" height="197">
<path d="M237.25 431.5H514.605C518.638 431.5 522.442 429.629 524.903 426.435L582.006 352.331C584.794 348.714 585.479 343.898 583.81 339.647L552.448 259.737C550.912 255.824 547.578 252.895 543.499 251.875L480.596 236.149C478.883 235.721 477.101 235.646 475.358 235.929L178.02 284.235C169.492 285.62 164.663 294.785 168.342 302.602L225.487 424.035C227.631 428.592 232.214 431.5 237.25 431.5Z" fill="#FFDF00"/>
</mask>
<g mask="url(#mask0_198_2)">
<path d="M151.5 222.5H639.5V446.5H151.5V222.5Z" fill="#FFDF00"/>
<path d="M354.002 364L368.283 380.999L385.667 364L382.697 356.402L369.92 350.647L354.002 364Z" fill="#ED1B2E"/>
<path d="M378.453 291.513L382.723 315.7L374.005 321.083L354.008 306.259L368.157 291.5L378.453 291.513Z" fill="#ED1B2E"/>
<path d="M418.009 291.526L434.425 299.025L426.237 313.485L413.255 321.07L401.202 313.319L418.009 291.526Z" fill="#ED1B2E"/>
<path d="M434.378 367.335L430.029 381.013H412.426L403.628 366.374L418.625 350.614L434.378 367.335Z" fill="#ED1B2E"/>
<path d="M321.276 333.648C321.09 331.718 319.89 330.618 317.981 330.618C315.853 330.618 314.566 332.441 314.566 336.008C314.566 338.594 315.13 341.047 318.213 341.047C320.169 341.047 321.09 339.681 321.329 337.911H327.157C326.62 342.684 323.199 345.568 318.319 345.568C312.206 345.568 308.5 341.816 308.5 335.802C308.5 329.822 312.557 326.089 317.729 326.089C323.378 326.089 326.54 328.887 327.024 333.648H321.276Z" fill="black"/>
<path d="M336.041 338.56L339.754 338.567L337.864 332.156L336.041 338.56L334.834 342.645L334.145 345.071H328.204L334.834 326.58H341L347.624 345.071H341.59L340.868 342.645H334.834L336.041 338.56Z" fill="black"/>
<path d="M370.736 338.673H374.449L372.56 332.268L370.736 338.673L369.53 342.757L368.84 345.183H362.906L369.53 326.686H375.696L382.319 345.183H376.286L375.563 342.757H369.53L370.736 338.673Z" fill="black"/>
<path d="M468.417 338.447L472.136 338.454L470.247 332.049L468.417 338.447L467.217 342.532L466.521 344.958H460.587L467.217 326.467H473.376L480 344.958H473.966L473.25 342.532H467.217L468.417 338.447Z" fill="black"/>
<path d="M346.994 326.58H363.941V331.433H358.504V345.071H352.437V331.433H346.994V326.58Z" fill="black"/>
<path d="M384.401 345.071V326.58H390.454V340.762H398.781V345.071H384.401Z" fill="black"/>
<path d="M401.374 326.58H407.44V337.652C407.44 339.475 407.798 341.047 410.285 341.047C412.479 341.047 413.122 339.661 413.122 337.652V326.58H419.176V337.042C419.176 342.976 416.417 345.568 410.278 345.568C404.556 345.568 401.367 343.381 401.367 337.009V326.58H401.374Z" fill="black"/>
<path d="M435.021 336.671L434.796 332.467V326.58H440.604V345.071H434.922L428.318 335.007L428.55 339.224V345.071H422.756V326.58H428.418L435.021 336.671Z" fill="black"/>
<path d="M455.402 345.071H449.336V338.348L442.453 326.58H449.223L452.418 332.845L455.601 326.58H462.284L455.402 338.242V345.071Z" fill="black"/>
</g>
<path d="M91.9662 202.471C104.526 204.211 208.072 444.876 221.53 467.744L-45.5093 467.744C-51.2256 436.573 -27.0884 182.528 -17.9168 189.526C-6.45225 198.273 76.2665 200.297 91.9662 202.471Z" fill="#73CCE3"/>
<path d="M1045.48 43.4883L1085 218.944C1086.62 226.141 1095.21 229.165 1100.98 224.572L1360.25 18.2811C1368.07 12.0604 1362.94 -0.51695 1353 0.508689L1054.2 31.3438C1048.24 31.9589 1044.16 37.6424 1045.48 43.4883Z" fill="#FEE629"/>
<path d="M1306.44 387.259L1407.73 108.214C1409.8 102.512 1406.36 96.2955 1400.43 95.0243L1318.67 77.5004C1315.71 76.8678 1312.64 77.6023 1310.29 79.499L1104.26 245.913C1099.08 250.097 1099.36 258.081 1104.82 261.892L1291.32 392.047C1296.71 395.809 1304.2 393.437 1306.44 387.259Z" fill="#E33F00"/>
<path d="M722.098 169.119L702.956 82.4196C700.864 72.9446 707.62 63.8036 717.292 63.0222L1013.38 39.1007C1021.22 38.4668 1028.36 43.6335 1030.22 51.2838L1067.48 205.181C1070.13 216.142 1060.91 226.335 1049.74 224.797L735.538 181.52C728.905 180.607 723.541 175.658 722.098 169.119Z" fill="#AECFF0"/>
</svg>
