<svg width="91" height="91" viewBox="0 0 91 91" fill="none" xmlns="http://www.w3.org/2000/svg">
<path d="M56.2799 78.7406L56.3251 79.891C56.2121 79.8741 56.054 79.8685 55.8506 79.8741C55.331 79.8967 54.9243 80.094 54.6306 80.4662C54.3369 80.8384 54.1053 81.3741 53.9415 82.0678C53.8229 82.5358 53.7551 83.0433 53.7325 83.6016C53.693 84.2332 53.6647 84.8366 53.6534 85.4005C53.6478 85.8178 53.6534 86.5058 53.6704 87.4645L53.7325 90.6958L46.3163 91.0003L45.8305 79.1692L47.0844 79.1185L47.5193 89.816L52.4616 89.613L52.4334 86.9062C52.4108 84.6844 52.5125 83.0095 52.7384 81.8817C52.9361 80.8553 53.275 80.094 53.7551 79.5978C54.2408 79.0959 54.9186 78.8139 55.7998 78.7463C56.0652 78.735 56.2234 78.735 56.2799 78.7406Z" fill="white"/>
<path d="M42.2382 78.5658L43.2379 78.8872L39.6004 90.16L38.4256 89.7822L41.4192 80.5057L31.4104 87.5209L30.3598 87.1825L33.9973 75.9097L35.1721 76.2876L32.1672 85.5923L42.2382 78.5658Z" fill="white"/>
<path d="M27.4509 71.0318C28.8178 72.0864 29.6198 73.4228 29.8458 75.0526C30.0548 76.6654 29.6142 78.1767 28.5241 79.5921C27.4396 80.9963 26.0953 81.8027 24.4742 82.0114C22.8419 82.2257 21.3394 81.7971 19.9612 80.7369C18.9389 79.9531 18.2441 79.0451 17.8657 78.0188L18.6508 76.9981C19.0688 78.1598 19.7353 79.0903 20.6559 79.8008C21.7291 80.6241 22.9266 80.9512 24.2483 80.7707C25.5474 80.6016 26.6375 79.9531 27.513 78.8139C28.3942 77.6692 28.75 76.4511 28.5862 75.1541C28.4167 73.8401 27.7841 72.7631 26.694 71.9228C25.6039 71.0826 24.429 70.6822 23.1807 70.716L23.9772 69.684C25.1746 69.7179 26.3269 70.169 27.4509 71.0318Z" fill="white"/>
<path d="M20.9214 63.9997L21.6331 65.0317L12.8048 71.1164L15.1263 74.4717L14.1943 75.1146L8.81145 67.3325L9.74342 66.6896L12.0931 70.0844L20.9214 63.9997Z" fill="white"/>
<path d="M18.5209 60.4583L18.9332 61.6933L5.9421 60.4752L5.56931 59.3699L15.1997 50.5615L15.6177 51.8134L12.9856 54.2495L14.9625 60.1369L18.5209 60.4583ZM7.25816 59.432L13.7876 60.0805L12.0762 54.9826L7.25816 59.432Z" fill="white"/>
<path d="M15.2223 48.0689L15.1884 49.1178L3.33258 48.7118L3.37777 47.4768L13.1324 47.8095L3.63195 40.1177L3.67148 39.018L15.5273 39.424L15.4821 40.659L5.69358 40.3207L15.2223 48.0689ZM2.67173 43.8452C2.64349 44.6911 2.38367 45.3621 1.89791 45.8584C1.41216 46.3546 0.779545 46.5971 7.70258e-05 46.5802L0.0396191 45.4975C0.514078 45.5144 0.903806 45.3678 1.20882 45.0632C1.51383 44.7587 1.67198 44.3414 1.69457 43.8113C1.71152 43.3038 1.58161 42.8921 1.29919 42.5707C1.01677 42.2493 0.638333 42.0745 0.163874 42.0519L0.203416 40.9692C0.982884 41.0199 1.59855 41.3132 2.05606 41.8433C2.49098 42.3903 2.69997 43.0557 2.67173 43.8452Z" fill="white"/>
<path d="M17.764 32.8995L17.3178 34.0668L7.30335 30.2377L5.84608 34.0442L4.78419 33.6382L8.17318 24.8072L9.23507 25.2132L7.75521 29.0704L17.764 32.8995Z" fill="white"/>
<path d="M25.3723 21.1022L20.1871 27.6888L10.8618 20.3691L15.8888 13.9855L16.7812 14.6848L12.528 20.0872L15.5104 22.4274L18.9954 18.0007L19.8878 18.6999L16.4028 23.1267L20.0685 26.0027L24.4742 20.403L25.3723 21.1022Z" fill="white"/>
<path d="M35.0366 14.7186L33.8504 15.119L30.0773 3.89133L38.9 0.936375L42.6731 12.1641L41.4813 12.5644L38.0697 2.41386L31.625 4.57368L35.0366 14.7186Z" fill="white"/>
<path d="M46.5535 11.8652L45.2996 11.8426L45.4916 0.000279235L50.4734 0.0792278C51.6483 0.0961449 52.5689 0.41194 53.2354 1.02098C53.9019 1.63001 54.2295 2.43078 54.2126 3.42328C54.1957 4.43834 53.8455 5.24475 53.1564 5.83123C52.4673 6.42334 51.5353 6.71095 50.3605 6.68839L46.6326 6.62636L46.5535 11.8652ZM46.7286 1.15631L46.6552 5.50415L50.2983 5.56055C51.1343 5.57182 51.7838 5.397 52.2583 5.02481C52.7271 4.65263 52.97 4.12818 52.9813 3.4402C52.9926 2.74093 52.7723 2.19957 52.3204 1.81611C51.8685 1.43264 51.219 1.22962 50.3717 1.21834L46.7286 1.15631Z" fill="white"/>
<path d="M56.8052 12.6096L55.8167 12.2543L59.8496 1.11684L61.0132 1.53415L57.692 10.6979L67.9437 4.03795L68.9773 4.41014L64.9444 15.5476L63.7808 15.1246L67.1134 5.92709L56.8052 12.6096Z" fill="white"/>
<path d="M69.4348 19.1172C68.2035 18.1303 67.3562 17.0589 66.8931 15.9029L67.7008 14.8991C68.1752 16.1623 68.9491 17.2281 70.0222 18.0909C70.9034 18.7958 71.745 19.1792 72.547 19.2356C73.3491 19.292 73.993 19.0213 74.4731 18.4236C74.9024 17.8879 75.021 17.2563 74.8233 16.5344C74.6256 15.8126 74.1399 15.1416 73.3773 14.5269L72.242 13.6133L72.9537 12.728L74.1963 13.7261C74.8459 14.2506 75.4616 14.5212 76.0433 14.5494C76.6251 14.572 77.1109 14.3464 77.5006 13.8615C77.8847 13.3878 77.9751 12.852 77.7774 12.2486C77.5797 11.6509 77.1391 11.0757 76.4613 10.5343C75.5576 9.80686 74.4675 9.28806 73.1966 8.9779L73.9422 8.05307C75.1904 8.35759 76.2862 8.89331 77.2408 9.65461C78.1727 10.4046 78.7602 11.2279 79.003 12.1359C79.2459 13.055 79.0821 13.8727 78.5116 14.5833C78.0711 15.1303 77.5627 15.4404 76.9753 15.5194C76.4048 15.5983 75.8852 15.5419 75.4164 15.3502C75.8005 15.9198 76.0264 16.557 76.0942 17.2619C76.1845 17.9555 75.9643 18.6379 75.4333 19.292C74.7725 20.1097 73.897 20.5157 72.8068 20.5044C71.6941 20.4932 70.5701 20.0308 69.4348 19.1172Z" fill="white"/>
<path d="M80.8162 33.2942L80.1723 32.2171L90.3562 26.1493L91.0001 27.2208L80.8162 33.2942ZM77.0657 27.0234L74.8233 23.2733L85.0072 17.1999L85.6511 18.277L81.8554 20.5439L83.4539 23.2169C84.143 24.3673 84.3802 25.4388 84.1656 26.42C83.9623 27.4238 83.3861 28.2076 82.4372 28.7715C81.4657 29.3524 80.4999 29.4877 79.534 29.1832C78.5625 28.873 77.7435 28.1569 77.0657 27.0234ZM80.8783 21.1191L76.4444 23.7639L77.9977 26.3636C78.4947 27.1982 79.0765 27.7283 79.7373 27.9651C80.3982 28.202 81.0816 28.1061 81.7933 27.6888C82.4994 27.2659 82.9117 26.7076 83.0247 26.0196C83.1376 25.326 82.9399 24.559 82.4372 23.7188L80.8783 21.1191Z" fill="white"/>
<path d="M58.017 87.0942C63.5395 85.8339 68.7427 83.448 73.3014 80.0858C77.8601 76.7235 81.6764 72.4571 84.5115 67.5531C87.3467 62.6492 89.1399 57.2132 89.7791 51.5849C90.4183 45.9565 89.8897 40.2569 88.2263 34.8421L87.4855 35.0696C89.1176 40.3825 89.6363 45.975 89.0091 51.4974C88.382 57.0199 86.6225 62.3536 83.8406 67.1653C81.0588 71.9769 77.3144 76.1631 72.8414 79.4621C68.3685 82.7611 63.2632 85.1021 57.8445 86.3387L58.017 87.0942Z" fill="white"/>
</svg>
