<svg width="1280" height="449" viewBox="0 0 1280 449" fill="none" xmlns="http://www.w3.org/2000/svg">
<mask id="mask0_198_2" style="mask-type:alpha" maskUnits="userSpaceOnUse" x="167" y="224" width="418" height="196">
<path d="M237.25 420H514.605C518.638 420 522.442 418.129 524.903 414.935L582.006 340.831C584.794 337.214 585.479 332.398 583.81 328.147L552.448 248.237C550.912 244.324 547.578 241.395 543.499 240.375L480.596 224.649C478.883 224.221 477.101 224.146 475.358 224.429L178.02 272.735C169.492 274.12 164.663 283.285 168.342 291.102L225.487 412.535C227.631 417.092 232.214 420 237.25 420Z" fill="#FFDF00"/>
</mask>
<g mask="url(#mask0_198_2)">
<path d="M151.5 211H639.5V435H151.5V211Z" fill="#FFDF00"/>
<path d="M354.002 352.5L368.283 369.499L385.667 352.5L382.697 344.902L369.92 339.147L354.002 352.5Z" fill="#ED1B2E"/>
<path d="M378.453 280.013L382.723 304.2L374.005 309.583L354.008 294.759L368.157 280L378.453 280.013Z" fill="#ED1B2E"/>
<path d="M418.009 280.026L434.425 287.525L426.237 301.985L413.255 309.57L401.202 301.819L418.009 280.026Z" fill="#ED1B2E"/>
<path d="M434.378 355.835L430.029 369.513H412.426L403.628 354.874L418.625 339.114L434.378 355.835Z" fill="#ED1B2E"/>
<path d="M321.276 322.148C321.09 320.218 319.89 319.118 317.981 319.118C315.853 319.118 314.566 320.941 314.566 324.508C314.566 327.094 315.13 329.547 318.213 329.547C320.169 329.547 321.09 328.181 321.329 326.411H327.157C326.62 331.184 323.199 334.068 318.319 334.068C312.206 334.068 308.5 330.316 308.5 324.302C308.5 318.322 312.557 314.589 317.729 314.589C323.378 314.589 326.54 317.387 327.024 322.148H321.276Z" fill="black"/>
<path d="M336.041 327.06L339.754 327.067L337.864 320.656L336.041 327.06L334.834 331.145L334.145 333.571H328.204L334.834 315.08H341L347.624 333.571H341.59L340.868 331.145H334.834L336.041 327.06Z" fill="black"/>
<path d="M370.736 327.173H374.449L372.56 320.768L370.736 327.173L369.53 331.257L368.84 333.683H362.906L369.53 315.186H375.696L382.319 333.683H376.286L375.563 331.257H369.53L370.736 327.173Z" fill="black"/>
<path d="M468.417 326.947L472.137 326.954L470.247 320.549L468.417 326.947L467.217 331.032L466.521 333.458H460.587L467.217 314.967H473.376L480 333.458H473.967L473.25 331.032H467.217L468.417 326.947Z" fill="black"/>
<path d="M346.994 315.08H363.941V319.933H358.504V333.571H352.437V319.933H346.994V315.08Z" fill="black"/>
<path d="M384.401 333.571V315.08H390.454V329.262H398.781V333.571H384.401Z" fill="black"/>
<path d="M401.374 315.08H407.44V326.152C407.44 327.975 407.798 329.547 410.285 329.547C412.479 329.547 413.122 328.161 413.122 326.152V315.08H419.176V325.542C419.176 331.476 416.418 334.068 410.278 334.068C404.556 334.068 401.367 331.881 401.367 325.509V315.08H401.374Z" fill="black"/>
<path d="M435.021 325.171L434.796 320.967V315.08H440.604V333.571H434.922L428.318 323.507L428.55 327.724V333.571H422.756V315.08H428.418L435.021 325.171Z" fill="black"/>
<path d="M455.402 333.571H449.336V326.848L442.454 315.08H449.223L452.419 321.345L455.601 315.08H462.284L455.402 326.742V333.571Z" fill="black"/>
</g>
<path d="M91.9662 190.971C104.526 192.711 208.072 433.376 221.53 456.244L-45.5093 456.244C-51.2256 425.073 -27.0884 171.028 -17.9168 178.026C-6.45225 186.773 76.2665 188.797 91.9662 190.971Z" fill="#73CCE3"/>
<path d="M1054.54 47.9992L1085.4 207.023C1086.82 214.343 1095.46 217.589 1101.35 213.014L1351.25 18.8424C1359.27 12.6053 1353.95 -0.239367 1343.87 1.02339L1063.11 36.1715C1057.37 36.8903 1053.44 42.3182 1054.54 47.9992Z" fill="#FEE629"/>
<path d="M1306.44 375.759L1407.73 96.7141C1409.8 91.0121 1406.36 84.7955 1400.43 83.5242L1318.67 66.0004C1315.71 65.3678 1312.64 66.1023 1310.29 67.999L1104.26 234.413C1099.08 238.597 1099.36 246.581 1104.82 250.392L1291.32 380.547C1296.71 384.309 1304.2 381.937 1306.44 375.759Z" fill="#E33F00"/>
<path d="M721.983 157.816L704.327 82.8682C702.061 73.25 708.969 63.8976 718.829 63.2354L1021.23 42.9248C1029.14 42.3934 1036.25 47.7367 1037.94 55.4844L1068.13 194.12C1070.49 204.986 1061.33 214.892 1050.31 213.375L735.374 169.998C728.821 169.095 723.5 164.254 721.983 157.816Z" fill="#AECFF0"/>
</svg>
